0
SECTION
2
HEADER
9
$INSUNITS
70
4
0
ENDSEC
0
SECTION
2
ENTITIES
0
LINE
8
CUT
10
6.0000
20
0.0000
30
0.0
11
294.0000
21
0.0000
31
0.0
0
LINE
8
CUT
10
6.0000
20
210.0000
30
0.0
11
294.0000
21
210.0000
31
0.0
0
LINE
8
CUT
10
0.0000
20
6.0000
30
0.0
11
0.0000
21
204.0000
31
0.0
0
LINE
8
CUT
10
300.0000
20
6.0000
30
0.0
11
300.0000
21
204.0000
31
0.0
0
ARC
8
CUT
10
294.0000
20
204.0000
30
0.0
40
6.0000
50
0.0000
51
90.0000
0
ARC
8
CUT
10
6.0000
20
204.0000
30
0.0
40
6.0000
50
90.0000
51
180.0000
0
ARC
8
CUT
10
6.0000
20
6.0000
30
0.0
40
6.0000
50
180.0000
51
270.0000
0
ARC
8
CUT
10
294.0000
20
6.0000
30
0.0
40
6.0000
50
270.0000
51
360.0000
0
CIRCLE
8
CUT
10
8.0000
20
8.0000
30
0.0
40
1.7000
0
CIRCLE
8
CUT
10
8.0000
20
202.0000
30
0.0
40
1.7000
0
CIRCLE
8
CUT
10
292.0000
20
8.0000
30
0.0
40
1.7000
0
CIRCLE
8
CUT
10
292.0000
20
202.0000
30
0.0
40
1.7000
0
CIRCLE
8
CUT
10
46.8760
20
176.3740
30
0.0
40
1.7000
0
CIRCLE
8
CUT
10
144.9200
20
176.3740
30
0.0
40
1.7000
0
CIRCLE
8
CUT
10
253.1240
20
176.3740
30
0.0
40
1.7000
0
CIRCLE
8
CUT
10
248.5070
20
159.4000
30
0.0
40
1.7000
0
CIRCLE
8
CUT
10
248.5070
20
101.4000
30
0.0
40
1.7000
0
CIRCLE
8
CUT
10
252.1080
20
81.8860
30
0.0
40
1.7000
0
CIRCLE
8
CUT
10
176.6700
20
81.6320
30
0.0
40
1.7000
0
CIRCLE
8
CUT
10
46.8760
20
54.9620
30
0.0
40
1.7000
0
ENDSEC
0
EOF
