0
SECTION
2
HEADER
9
$INSUNITS
70
4
0
ENDSEC
0
SECTION
2
ENTITIES
0
LINE
8
CUT
10
6.0000
20
0.0000
30
0.0
11
294.0000
21
0.0000
31
0.0
0
LINE
8
CUT
10
6.0000
20
210.0000
30
0.0
11
294.0000
21
210.0000
31
0.0
0
LINE
8
CUT
10
0.0000
20
6.0000
30
0.0
11
0.0000
21
204.0000
31
0.0
0
LINE
8
CUT
10
300.0000
20
6.0000
30
0.0
11
300.0000
21
204.0000
31
0.0
0
ARC
8
CUT
10
294.0000
20
204.0000
30
0.0
40
6.0000
50
0.0000
51
90.0000
0
ARC
8
CUT
10
6.0000
20
204.0000
30
0.0
40
6.0000
50
90.0000
51
180.0000
0
ARC
8
CUT
10
6.0000
20
6.0000
30
0.0
40
6.0000
50
180.0000
51
270.0000
0
ARC
8
CUT
10
294.0000
20
6.0000
30
0.0
40
6.0000
50
270.0000
51
360.0000
0
CIRCLE
8
CUT
10
8.0000
20
8.0000
30
0.0
40
1.7000
0
CIRCLE
8
CUT
10
8.0000
20
202.0000
30
0.0
40
1.7000
0
CIRCLE
8
CUT
10
292.0000
20
8.0000
30
0.0
40
1.7000
0
CIRCLE
8
CUT
10
292.0000
20
202.0000
30
0.0
40
1.7000
0
CIRCLE
8
CUT
10
210.6300
20
108.7600
30
0.0
40
18.0000
0
CIRCLE
8
CUT
10
194.6300
20
92.7600
30
0.0
40
1.7000
0
CIRCLE
8
CUT
10
194.6300
20
124.7600
30
0.0
40
1.7000
0
CIRCLE
8
CUT
10
226.6300
20
92.7600
30
0.0
40
1.7000
0
CIRCLE
8
CUT
10
226.6300
20
124.7600
30
0.0
40
1.7000
0
CIRCLE
8
CUT
10
31.0000
20
99.0000
30
0.0
40
1.7000
0
CIRCLE
8
CUT
10
109.0000
20
99.0000
30
0.0
40
1.7000
0
CIRCLE
8
CUT
10
116.9900
20
154.0000
30
0.0
40
1.7000
0
CIRCLE
8
CUT
10
36.0000
20
177.0000
30
0.0
40
1.7000
0
CIRCLE
8
CUT
10
79.2750
20
44.8250
30
0.0
40
1.4500
0
CIRCLE
8
CUT
10
78.8750
20
61.1000
30
0.0
40
1.4500
0
CIRCLE
8
CUT
10
44.8150
20
44.8250
30
0.0
40
1.4500
0
CIRCLE
8
CUT
10
44.4150
20
61.3000
30
0.0
40
1.4500
0
CIRCLE
8
CUT
10
211.0000
20
21.0000
30
0.0
40
1.7000
0
CIRCLE
8
CUT
10
269.0000
20
21.0000
30
0.0
40
1.7000
0
CIRCLE
8
CUT
10
211.0000
20
69.0000
30
0.0
40
1.7000
0
CIRCLE
8
CUT
10
269.0000
20
69.0000
30
0.0
40
1.7000
0
ENDSEC
0
EOF
